<svg width="48" height="48" viewBox="0 0 48 48" fill="#51362d" xmlns="http://www.w3.org/2000/svg">
<path d="M5.46089 9.21422C7.79141 6.92987 10.7934 5.77441 14.4933 5.77441C18.1932 5.77441 21.2084 6.91659 23.552 9.21422C25.8957 11.4986 27.0676 14.5665 27.0676 18.3915V42.0451H22.6304V18.5907C22.6304 16.0805 21.9325 14.0884 20.5237 12.6142C19.128 11.14 17.1135 10.3962 14.5065 10.3962C11.8994 10.3962 9.88493 11.14 8.48925 12.6142C7.09357 14.0884 6.38257 16.0805 6.38257 18.5907V42.0451H1.98486V18.3915C1.98486 14.5532 3.14354 11.4986 5.47406 9.21422H5.46089Z" fill="#51362d"/>
<path d="M45.7917 41.3371C45.512 40.6015 45.2456 39.8659 44.9659 39.1303C44.553 38.0336 44.1401 36.9369 43.7272 35.8401C43.221 34.4893 42.7149 33.1251 42.1954 31.7743C41.6227 30.2629 41.0633 28.765 40.4905 27.2536C39.9045 25.7022 39.3184 24.1374 38.7324 22.5859C38.1729 21.088 37.6002 19.59 37.0408 18.0787C36.5346 16.7412 36.0285 15.3904 35.5224 14.0529C35.1228 12.9696 34.7099 11.8996 34.3103 10.8163C33.964 9.9068 33.6709 8.93045 33.2714 8.0611C33.2048 7.91398 33.1382 7.78024 33.0716 7.64649C32.1392 5.84092 30.2612 5.29256 28.7294 6.21541C28.1034 6.5899 27.5706 7.21851 27.2509 7.99423C27.171 8.19485 26.7581 9.27819 26.1321 10.9768C26.0921 11.0838 26.4385 11.6589 26.5051 11.7926C26.6516 12.1537 26.7981 12.5148 26.9313 12.876C27.1843 13.5714 27.3841 14.2803 27.544 15.0025C27.8104 16.233 27.9036 17.2227 27.8903 18.7073L27.9835 18.4532L30.5808 12.1404L41.1299 42.1262H46.0847C45.9782 41.8587 45.8849 41.5912 45.7784 41.3237L45.7917 41.3371Z" fill="#51362d"/>
<path d="M13.8105 42.1128H18.8228L21.9407 33.3092V20.1173C18.2834 29.9945 13.8105 42.1262 13.8105 42.1262V42.1128Z" fill="#51362d"/>
</svg>
