<svg  viewBox="0 0 67 68" fill="none" xmlns="http://www.w3.org/2000/svg">
<path d="M7.62246 13.7223C10.8755 10.5337 15.0658 8.9209 20.2302 8.9209C25.3946 8.9209 29.6033 10.5152 32.8747 13.7223C36.1461 16.9109 37.7818 21.1932 37.7818 26.5322V59.5487H31.5882V26.8103C31.5882 23.3065 30.6141 20.5258 28.6476 18.4681C26.6995 16.4103 23.8875 15.3722 20.2486 15.3722C16.6096 15.3722 13.7977 16.4103 11.8495 18.4681C9.90141 20.5258 8.90897 23.3065 8.90897 26.8103V59.5487H2.77051V26.5322C2.77051 21.1746 4.38783 16.9109 7.64084 13.7223H7.62246Z" fill="#51362D"/>
<path d="M63.9177 58.5605C63.5272 57.5337 63.1554 56.5069 62.765 55.4801C62.1886 53.9493 61.6123 52.4185 61.0359 50.8876C60.3294 49.0021 59.623 47.0979 58.8979 45.2123C58.0984 43.1028 57.3176 41.0119 56.5181 38.9023C55.7001 36.7368 54.882 34.5525 54.064 32.3869C53.2831 30.2961 52.4837 28.2052 51.7028 26.0956C50.9964 24.2287 50.2899 22.3432 49.5834 20.4763C49.0256 18.9642 48.4493 17.4707 47.8915 15.9585C47.4081 14.689 46.9991 13.3262 46.4414 12.1127C46.3484 11.9074 46.2554 11.7207 46.1625 11.534C44.8611 9.01373 42.2396 8.24832 40.1015 9.53646C39.2277 10.0592 38.4841 10.9366 38.0379 12.0194C37.9263 12.2994 37.35 13.8116 36.4761 16.1825C36.4204 16.3319 36.9038 17.1346 36.9967 17.3213C37.2012 17.8254 37.4057 18.3294 37.5917 18.8335C37.9449 19.8042 38.2238 20.7937 38.4469 21.8018C38.8187 23.5193 38.9489 24.9008 38.9303 26.973L39.0604 26.6183L42.6858 17.8067L57.4105 59.6619H64.3267C64.178 59.2885 64.0478 58.9152 63.8991 58.5418L63.9177 58.5605Z" fill="#51362D"/>
<path d="M19.2773 59.6434H26.2737L30.6257 47.3551V28.9414C25.5208 42.7283 19.2773 59.6622 19.2773 59.6622V59.6434Z" fill="#51362D"/>
</svg>
