<svg width="21" height="21" viewBox="0 0 21 21" fill="none" xmlns="http://www.w3.org/2000/svg">
<path d="M11.3995 1.75C12.3839 1.75262 12.8835 1.75788 13.3149 1.77013L13.4846 1.77625C13.6806 1.78325 13.874 1.792 14.1076 1.8025C15.0386 1.84625 15.6739 1.99325 16.2313 2.20938C16.8088 2.43163 17.2953 2.73262 17.7818 3.21825C18.2269 3.65552 18.5712 4.18466 18.7906 4.76875C19.0068 5.32612 19.1538 5.96137 19.1975 6.89325C19.208 7.126 19.2168 7.31938 19.2238 7.51625L19.229 7.686C19.2421 8.1165 19.2474 8.61613 19.2491 9.6005L19.25 10.2533V11.3995C19.2521 12.0377 19.2454 12.676 19.2299 13.314L19.2246 13.4837C19.2176 13.6806 19.2089 13.874 19.1984 14.1067C19.1546 15.0386 19.0059 15.673 18.7906 16.2312C18.5712 16.8153 18.2269 17.3445 17.7818 17.7817C17.3445 18.2269 16.8153 18.5712 16.2313 18.7906C15.6739 19.0068 15.0386 19.1538 14.1076 19.1975L13.4846 19.2237L13.3149 19.229C12.8835 19.2412 12.3839 19.2474 11.3995 19.2491L10.7468 19.25H9.60138C8.96286 19.2523 8.32434 19.2455 7.68601 19.2299L7.51626 19.2246C7.30854 19.2168 7.10087 19.2077 6.89326 19.1975C5.96226 19.1538 5.32701 19.0068 4.76876 18.7906C4.18499 18.571 3.65615 18.2268 3.21913 17.7817C2.77371 17.3446 2.4291 16.8154 2.20938 16.2312C1.99326 15.6739 1.84626 15.0386 1.80251 14.1067L1.77626 13.4837L1.77188 13.314C1.75575 12.676 1.74846 12.0377 1.75001 11.3995V9.6005C1.74759 8.96228 1.754 8.32405 1.76926 7.686L1.77538 7.51625C1.78238 7.31938 1.79113 7.126 1.80163 6.89325C1.84538 5.96137 1.99238 5.327 2.20851 4.76875C2.42874 4.18442 2.77395 3.65526 3.22001 3.21825C3.65677 2.77336 4.1853 2.42906 4.76876 2.20938C5.32701 1.99325 5.96138 1.84625 6.89326 1.8025C7.12601 1.792 7.32026 1.78325 7.51626 1.77625L7.68601 1.771C8.32405 1.75545 8.96228 1.74874 9.60051 1.75087L11.3995 1.75ZM10.5 6.125C9.33969 6.125 8.22689 6.58594 7.40642 7.40641C6.58595 8.22688 6.12501 9.33968 6.12501 10.5C6.12501 11.6603 6.58595 12.7731 7.40642 13.5936C8.22689 14.4141 9.33969 14.875 10.5 14.875C11.6603 14.875 12.7731 14.4141 13.5936 13.5936C14.4141 12.7731 14.875 11.6603 14.875 10.5C14.875 9.33968 14.4141 8.22688 13.5936 7.40641C12.7731 6.58594 11.6603 6.125 10.5 6.125ZM10.5 7.875C10.8447 7.87494 11.1861 7.94278 11.5046 8.07465C11.8231 8.20651 12.1125 8.39982 12.3563 8.64354C12.6001 8.88725 12.7935 9.17659 12.9255 9.49505C13.0574 9.81351 13.1254 10.1548 13.1254 10.4996C13.1255 10.8443 13.0577 11.1856 12.9258 11.5041C12.7939 11.8226 12.6006 12.1121 12.3569 12.3558C12.1132 12.5996 11.8239 12.793 11.5054 12.925C11.1869 13.057 10.8456 13.1249 10.5009 13.125C9.80469 13.125 9.13701 12.8484 8.64473 12.3562C8.15245 11.8639 7.87589 11.1962 7.87589 10.5C7.87589 9.80381 8.15245 9.13613 8.64473 8.64384C9.13701 8.15156 9.80469 7.875 10.5009 7.875M15.0946 4.8125C14.8046 4.8125 14.5264 4.92773 14.3212 5.13285C14.1161 5.33797 14.0009 5.61617 14.0009 5.90625C14.0009 6.19633 14.1161 6.47453 14.3212 6.67965C14.5264 6.88477 14.8046 7 15.0946 7C15.3847 7 15.6629 6.88477 15.868 6.67965C16.0732 6.47453 16.1884 6.19633 16.1884 5.90625C16.1884 5.61617 16.0732 5.33797 15.868 5.13285C15.6629 4.92773 15.3847 4.8125 15.0946 4.8125Z" fill="white"/>
</svg>
