<svg width="180" height="180" viewBox="0 0 180 180" fill="none" xmlns="http://www.w3.org/2000/svg">
<rect width="180" height="180" fill="white"/>
<path d="M38.6315 49.5311C45.089 43.2016 53.4071 40 63.6588 40C73.9105 40 82.2651 43.1648 88.7591 49.5311C95.253 55.8607 98.5 64.3614 98.5 74.9597V140.5H86.2053V75.5117C86.2053 68.5566 84.2717 63.0366 80.368 58.9519C76.5008 54.8671 70.9189 52.8063 63.6953 52.8063C56.4717 52.8063 50.8898 54.8671 47.0226 58.9519C43.1554 63.0366 41.1853 68.5566 41.1853 75.5117V140.5H29V74.9597C29 64.3246 32.2105 55.8607 38.668 49.5311H38.6315Z" fill="#51362D"/>
<path d="M150.382 138.538C149.607 136.5 148.869 134.462 148.094 132.424C146.949 129.385 145.805 126.346 144.661 123.307C143.259 119.564 141.856 115.784 140.417 112.041C138.83 107.854 137.28 103.703 135.693 99.5154C134.069 95.2166 132.445 90.8807 130.821 86.5819C129.271 82.4313 127.684 78.2807 126.134 74.0931C124.732 70.3872 123.33 66.6442 121.927 62.9384C120.82 59.9366 119.676 56.9719 118.569 53.9701C117.609 51.4502 116.797 48.7449 115.69 46.336C115.505 45.9284 115.321 45.5578 115.136 45.1872C112.553 40.1843 107.349 38.6649 103.105 41.2219C101.37 42.2596 99.8942 44.0013 99.0084 46.1507C98.787 46.7066 97.6429 49.7084 95.9083 54.4149C95.7976 54.7113 96.7571 56.3048 96.9417 56.6754C97.3476 57.676 97.7536 58.6766 98.1226 59.6772C98.8239 61.6043 99.3775 63.5684 99.8203 65.5695C100.558 68.9789 100.817 71.7213 100.78 75.8348L101.038 75.1307L108.235 57.639L137.465 140.725H151.194C150.898 139.984 150.64 139.242 150.345 138.501L150.382 138.538Z" fill="#51362D"/>
<path d="M61.7671 140.688H75.6553L84.2944 116.294V79.7417C74.1607 107.11 61.7671 140.725 61.7671 140.725V140.688Z" fill="#51362D"/>
</svg>
